<?xml version="1.0" encoding="utf-8"?>
<!-- Generator: Adobe Illustrator 21.1.0, SVG Export Plug-In . SVG Version: 6.00 Build 0)  -->
<svg version="1.1" id="Layer_1" xmlns="http://www.w3.org/2000/svg" xmlns:xlink="http://www.w3.org/1999/xlink" x="0px" y="0px"
	 viewBox="0 0 189.7 125.7" style="enable-background:new 0 0 189.7 125.7;" xml:space="preserve">
<style type="text/css">
	.st0{opacity:0.1;fill:#76A6D6;}
	.st1{opacity:0.5;fill:#85B3DD;}
	.st2{fill:none;stroke:#2F76CC;stroke-width:2;stroke-miterlimit:10;}
</style>
<path class="st0" d="M179.8,88.6c0,44.9-36.4,34.1-81.4,34.1s-81.4,10.9-81.4-34.1S53.5,7.2,98.4,7.2S179.8,43.6,179.8,88.6z"/>
<rect x="49.2" y="12.7" class="st1" width="96.8" height="109.6"/>
<rect x="148.2" y="52.7" class="st1" width="34.8" height="69.6"/>
<rect x="55.7" y="82.9" class="st2" width="18" height="18"/>
<rect x="115.7" y="82.9" class="st2" width="18" height="18"/>
<rect x="154.7" y="62.9" class="st2" width="14" height="14"/>
<rect x="154.7" y="86.9" class="st2" width="14" height="14"/>
<rect x="36.7" class="st1" width="124.5" height="11.1"/>
<rect x="5" y="39.6" class="st1" width="39.7" height="9.2"/>
<line class="st2" x1="1.9" y1="124.7" x2="189.2" y2="124.7"/>
<rect x="46" y="13.5" class="st2" width="96.8" height="111.2"/>
<rect x="143" y="51.5" class="st2" width="36.8" height="73.2"/>
<rect x="12.2" y="52.7" class="st1" width="34.8" height="69.6"/>
<rect x="20.7" y="62.9" class="st2" width="14" height="14"/>
<rect x="20.7" y="86.9" class="st2" width="14" height="14"/>
<rect x="9" y="51.5" class="st2" width="36.8" height="73.2"/>
<rect x="33.3" y="2.4" class="st2" width="124.5" height="11.1"/>
<rect x="1" y="41.6" class="st2" width="44" height="9.3"/>
<rect x="150" y="38.6" class="st1" width="39.7" height="10.2"/>
<rect x="143" y="41.6" class="st2" width="44" height="9.3"/>
<rect x="82.6" y="83.2" class="st2" width="23.5" height="41.5"/>
<rect x="59.5" y="63.2" class="st2" width="70" height="10"/>
<rect x="59.5" y="43.2" class="st2" width="70" height="10"/>
<rect x="59.5" y="23.2" class="st2" width="70" height="10"/>
</svg>
