<?xml version="1.0" encoding="utf-8"?>
<!-- Generator: Adobe Illustrator 21.1.0, SVG Export Plug-In . SVG Version: 6.00 Build 0)  -->
<svg version="1.1" id="Layer_1" xmlns="http://www.w3.org/2000/svg" xmlns:xlink="http://www.w3.org/1999/xlink" x="0px" y="0px"
	 viewBox="0 0 189.7 125.7" style="enable-background:new 0 0 189.7 125.7;" xml:space="preserve">
<style type="text/css">
	.st0{opacity:0.1;fill:#76A6D6;}
	.st1{opacity:0.5;fill:#85B3DD;}
	.st2{fill:none;stroke:#2F76CC;stroke-width:2;stroke-miterlimit:10;}
</style>
<g>
	<path class="st0" d="M171,82.6c0,40.2-32.6,30.5-72.8,30.5s-72.8,9.7-72.8-30.5S57.9,9.8,98.2,9.8S171,42.4,171,82.6z"/>
	<rect x="48.9" y="31.1" class="st1" width="96.8" height="79.6"/>
	<rect x="36.5" y="18.4" class="st1" width="124.5" height="11.1"/>
	<line class="st2" x1="21.7" y1="113.1" x2="168.9" y2="113.1"/>
	<rect x="45.7" y="31.9" class="st2" width="96.8" height="81.2"/>
	<rect x="33.1" y="20.8" class="st2" width="124.5" height="11.1"/>
	<rect x="82.4" y="71.6" class="st2" width="23.5" height="41.5"/>
	<rect x="114.2" y="72.7" class="st2" width="18" height="24"/>
	<rect x="55.2" y="72.7" class="st2" width="18" height="24"/>
	<rect x="114.2" y="42.7" class="st2" width="18" height="18"/>
	<rect x="55.2" y="42.7" class="st2" width="18" height="18"/>
	<rect x="85.2" y="42.7" class="st2" width="18" height="18"/>
	<rect x="55.2" y="14.2" class="st2" width="18" height="6"/>
</g>
</svg>
